<svg width="92" height="92" viewBox="0 0 92 92" fill="none" xmlns="http://www.w3.org/2000/svg">
<g id="Cryptocurrency icon/Ampleforth" filter="url(#filter0_d_5226_1955)">
<rect x="16" y="15" width="60" height="60" rx="30" fill="white"/>
<g id="Group">
<path id="Ampleforth Governance Token (FORTH)" d="M31.0202 60.3333C30.9986 59.9119 30.9915 59.4905 31.013 59.0692C31.1564 59.027 31.2999 58.9989 31.4506 58.9779C31.881 58.9076 32.3114 58.8023 32.7274 58.6829C32.8422 58.6478 32.957 58.6056 33.0718 58.5635C33.6241 58.3528 34.1119 58.0016 34.4849 57.5521C34.7432 57.2361 34.9655 56.892 35.1592 56.5338C35.4318 56.0421 35.6685 55.5294 35.8837 55.0097C36.3142 53.9562 36.7446 52.9098 37.1678 51.8563C38.6312 48.2323 40.0946 44.6083 41.5579 40.9843C42.9424 37.5359 44.3054 34.0875 45.6396 30.618C45.6683 30.5478 45.697 30.4776 45.7257 30.4073C46.2207 30.2739 46.7013 30.1334 47.2034 30C47.2321 30.0702 47.2608 30.1334 47.2823 30.1967C47.849 31.7418 48.4157 33.2869 48.9753 34.839C50.9049 40.1135 52.8346 45.3809 54.8145 50.6343C55.3596 52.067 55.9048 53.5068 56.4572 54.9395C56.6724 55.5224 56.9306 56.0983 57.2247 56.6461C57.3539 56.8849 57.4901 57.1097 57.6408 57.3344C58.0999 58.0367 58.8101 58.5354 59.635 58.7461C60.0798 58.8585 60.5245 58.9498 60.9836 59.0059L61.3064 59.0551C61.3495 59.1956 61.3279 59.329 61.3279 59.4625C61.3279 59.5959 61.3279 59.7504 61.3279 59.8909C61.3351 60.0313 61.3279 60.1648 61.3208 60.3052C61.2777 60.3123 61.2419 60.3193 61.1988 60.3263C61.1486 60.3263 61.0984 60.3263 61.0482 60.3263H49.8504C49.8361 60.3052 49.8289 60.2771 49.8217 60.2491C49.8217 59.8698 49.8217 59.4905 49.8217 59.1113C49.8217 59.0972 49.8289 59.0762 49.8361 59.0621C49.9293 59.034 50.0226 59.02 50.123 59.0059C50.5893 58.9427 51.0484 58.8585 51.5075 58.7391C51.6868 58.6899 51.8733 58.6267 52.0455 58.5565C52.1316 58.5213 52.2177 58.4792 52.3038 58.43C52.7557 58.1842 52.935 57.7979 52.892 57.3063C52.8705 57.0816 52.8346 56.8639 52.77 56.6461C52.6768 56.309 52.5548 55.9789 52.44 55.6559C50.0872 49.2296 47.763 42.7963 45.4603 36.349C45.4388 36.2788 45.4244 36.2015 45.3527 36.1383C45.3312 36.1524 45.2953 36.1664 45.281 36.1804C45.2594 36.2156 45.2451 36.2507 45.2379 36.2858C44.1117 39.4533 42.9137 42.5997 41.7229 45.7391C40.8406 48.0637 39.9583 50.3955 39.1405 52.7412C38.8105 53.6823 38.4949 54.6305 38.1864 55.5786C38.0645 55.9438 37.9784 56.316 37.921 56.6883C37.878 56.9411 37.8708 57.194 37.8995 57.4538C37.9353 57.7839 38.1147 58.0859 38.3944 58.2826C38.5738 58.409 38.7746 58.5073 38.9898 58.5775C39.327 58.6969 39.6713 58.7812 40.0228 58.8374C40.4102 58.9076 40.7976 58.9638 41.1921 59.02C41.2208 59.027 41.2423 59.027 41.2782 59.034C41.2853 59.0621 41.2925 59.0902 41.2997 59.1183C41.2997 59.4835 41.2997 59.8558 41.2997 60.221C41.2997 60.242 41.2925 60.2631 41.2853 60.2842C41.2495 60.2912 41.2136 60.2982 41.1777 60.2982C41.1275 60.2982 41.0773 60.2982 41.0271 60.2982L31.0202 60.3333Z" fill="#1D1C1F"/>
</g>
</g>
<defs>
<filter id="filter0_d_5226_1955" x="0" y="0" width="92" height="92" filterUnits="userSpaceOnUse" color-interpolation-filters="sRGB">
<feFlood flood-opacity="0" result="BackgroundImageFix"/>
<feColorMatrix in="SourceAlpha" type="matrix" values="0 0 0 0 0 0 0 0 0 0 0 0 0 0 0 0 0 0 127 0" result="hardAlpha"/>
<feOffset dy="1"/>
<feGaussianBlur stdDeviation="8"/>
<feColorMatrix type="matrix" values="0 0 0 0 0.0784314 0 0 0 0 0.0823529 0 0 0 0 0.101961 0 0 0 0.06 0"/>
<feBlend mode="normal" in2="BackgroundImageFix" result="effect1_dropShadow_5226_1955"/>
<feBlend mode="normal" in="SourceGraphic" in2="effect1_dropShadow_5226_1955" result="shape"/>
</filter>
</defs>
</svg>
