<svg width="92" height="92" viewBox="0 0 92 92" fill="none" xmlns="http://www.w3.org/2000/svg">
<g id="Cryptocurrency icon/Coinbase" filter="url(#filter0_d_5226_1961)">
<rect x="16" y="15" width="60" height="60" rx="30" fill="white"/>
<path id="Group" d="M46.3883 54.0824C41.5848 54.0824 37.6941 50.1917 37.6941 45.3882C37.6941 40.5847 41.5848 36.6941 46.3883 36.6941C50.6919 36.6941 54.2637 39.8312 54.952 43.9392H63.7113C62.9723 35.0133 55.5026 28 46.3883 28C36.7885 28 29 35.7885 29 45.3882C29 54.988 36.7885 62.7765 46.3883 62.7765C55.5026 62.7765 62.9723 55.7632 63.7113 46.8373H54.9447C54.2565 50.9452 50.6919 54.0824 46.3883 54.0824Z" fill="#1D1C1F"/>
</g>
<defs>
<filter id="filter0_d_5226_1961" x="0" y="0" width="92" height="92" filterUnits="userSpaceOnUse" color-interpolation-filters="sRGB">
<feFlood flood-opacity="0" result="BackgroundImageFix"/>
<feColorMatrix in="SourceAlpha" type="matrix" values="0 0 0 0 0 0 0 0 0 0 0 0 0 0 0 0 0 0 127 0" result="hardAlpha"/>
<feOffset dy="1"/>
<feGaussianBlur stdDeviation="8"/>
<feColorMatrix type="matrix" values="0 0 0 0 0.0784314 0 0 0 0 0.0823529 0 0 0 0 0.101961 0 0 0 0.06 0"/>
<feBlend mode="normal" in2="BackgroundImageFix" result="effect1_dropShadow_5226_1961"/>
<feBlend mode="normal" in="SourceGraphic" in2="effect1_dropShadow_5226_1961" result="shape"/>
</filter>
</defs>
</svg>
