<svg width="92" height="92" viewBox="0 0 92 92" fill="none" xmlns="http://www.w3.org/2000/svg">
<g filter="url(#filter0_d_5226_1936)">
<rect x="16" y="15" width="60" height="60" rx="30" fill="white"/>
<g clip-path="url(#clip0_5226_1936)">
<mask id="mask0_5226_1936" style="mask-type:luminance" maskUnits="userSpaceOnUse" x="20" y="19" width="52" height="52">
<path d="M72 19H20V71H72V19Z" fill="white"/>
</mask>
<g mask="url(#mask0_5226_1936)">
<mask id="mask1_5226_1936" style="mask-type:luminance" maskUnits="userSpaceOnUse" x="20" y="19" width="52" height="52">
<path d="M72 19H20V71H72V19Z" fill="white"/>
</mask>
<g mask="url(#mask1_5226_1936)">
<path d="M56.4104 49.6645C55.5082 50.8735 53.6102 52.8807 52.5546 52.8807H47.6484V49.6619H51.5562C52.1152 49.6619 52.6482 49.4357 53.033 49.0379C55.0402 46.9579 56.1998 44.4827 56.1998 41.8281C56.1998 37.2989 52.8146 33.2949 47.6458 30.8821V28.7189C47.6458 27.7881 46.8918 27.0341 45.961 27.0341C45.0302 27.0341 44.2762 27.7881 44.2762 28.7189V29.6159C42.828 29.1921 41.294 28.8697 39.6924 28.6851C42.3444 31.5659 43.9642 35.4191 43.9642 39.6441C43.9642 43.4323 42.6694 46.9111 40.4932 49.6671H44.2762V52.8911H38.7382C37.9894 52.8911 37.381 52.2853 37.381 51.5339V50.1247C37.381 49.8777 37.1808 49.6749 36.9312 49.6749H29.6304C29.4874 49.6749 29.3652 49.7919 29.3652 49.9349C29.36 55.7017 33.923 60.0307 39.3804 60.0307H54.7854C58.4774 60.0307 60.1284 55.2987 62.2916 52.2879C63.1314 51.1231 65.1464 50.1871 65.7574 49.9271C65.8692 49.8803 65.9342 49.7763 65.9342 49.6541V47.7821C65.9342 47.5923 65.747 47.4493 65.5624 47.5013C65.5624 47.5013 56.6574 49.5475 56.5534 49.5761C56.4494 49.6073 56.4104 49.6671 56.4104 49.6671V49.6645Z" fill="#1D1C1F"/>
<path d="M41.112 39.6309C41.112 36.7267 40.1162 34.0539 38.4522 31.9401L30.0724 46.4403H39.0866C40.3684 44.4851 41.1146 42.1451 41.1146 39.6335L41.112 39.6309Z" fill="#1D1C1F"/>
<path d="M46.2262 19C31.687 18.8804 19.8804 30.687 20 45.2262C20.1222 59.3442 31.6558 70.8804 45.7712 70.9974C60.3104 71.1222 72.1222 59.3104 71.9974 44.7712C71.8804 30.6584 60.3442 19.1222 46.2262 19ZM38.4522 31.9402C40.1162 34.054 41.112 36.7294 41.112 39.631C41.112 42.1452 40.3658 44.4852 39.084 46.4378H30.0698L38.4496 31.9376L38.4522 31.9402ZM65.9342 47.7794V49.6514C65.9342 49.7736 65.8692 49.8776 65.7574 49.9244C65.1464 50.1844 63.1314 51.1204 62.2916 52.2852C60.1284 55.2961 58.4774 60.028 54.7854 60.028H39.3804C33.9256 60.028 29.3626 55.699 29.3652 49.9322C29.3652 49.7892 29.4874 49.6722 29.6304 49.6722H36.9312C37.1834 49.6722 37.381 49.875 37.381 50.122V51.5312C37.381 52.28 37.9868 52.8884 38.7382 52.8884H44.2762V49.6644H40.4932C42.6694 46.9084 43.9642 43.4296 43.9642 39.6414C43.9642 35.4164 42.3444 31.5632 39.6924 28.6824C41.2966 28.8696 42.8306 29.1894 44.2762 29.6132V28.7162C44.2762 27.7854 45.0302 27.0314 45.961 27.0314C46.8918 27.0314 47.6458 27.7854 47.6458 28.7162V30.8794C52.8146 33.2922 56.1998 37.2962 56.1998 41.8254C56.1998 44.4826 55.0376 46.9552 53.033 49.0352C52.6482 49.433 52.1152 49.6592 51.5562 49.6592H47.6484V52.878H52.5546C53.6128 52.878 55.5108 50.8708 56.4104 49.6618C56.4104 49.6618 56.4494 49.602 56.5534 49.5708C56.6574 49.5396 65.5624 47.496 65.5624 47.496C65.7496 47.444 65.9342 47.587 65.9342 47.7768V47.7794Z" fill="white"/>
</g>
</g>
</g>
</g>
<defs>
<filter id="filter0_d_5226_1936" x="0" y="0" width="92" height="92" filterUnits="userSpaceOnUse" color-interpolation-filters="sRGB">
<feFlood flood-opacity="0" result="BackgroundImageFix"/>
<feColorMatrix in="SourceAlpha" type="matrix" values="0 0 0 0 0 0 0 0 0 0 0 0 0 0 0 0 0 0 127 0" result="hardAlpha"/>
<feOffset dy="1"/>
<feGaussianBlur stdDeviation="8"/>
<feColorMatrix type="matrix" values="0 0 0 0 0.0784314 0 0 0 0 0.0823529 0 0 0 0 0.101961 0 0 0 0.06 0"/>
<feBlend mode="normal" in2="BackgroundImageFix" result="effect1_dropShadow_5226_1936"/>
<feBlend mode="normal" in="SourceGraphic" in2="effect1_dropShadow_5226_1936" result="shape"/>
</filter>
<clipPath id="clip0_5226_1936">
<rect width="52" height="52" fill="white" transform="translate(20 19)"/>
</clipPath>
</defs>
</svg>
