<svg width="92" height="92" viewBox="0 0 92 92" fill="none" xmlns="http://www.w3.org/2000/svg">
<g id="Cryptocurrency icon/Kusama" filter="url(#filter0_d_5226_1931)">
<rect x="16" y="15" width="60" height="60" rx="30" fill="white"/>
<path id="Group" d="M64.3691 34.33C63.756 33.8466 63.0249 33.1863 61.6925 33.0212C60.4426 32.8561 59.1691 33.6933 58.3084 34.2475C57.4476 34.8017 55.8204 36.4289 55.1483 36.9241C54.4762 37.4194 52.7546 37.8792 49.9837 39.5418C47.2127 41.2044 36.341 48.1849 36.341 48.1849L39.171 48.2203L26.5542 54.7173H27.8159L26 56.0969C26 56.0969 27.6036 56.5214 28.9478 55.6724V56.0616C28.9478 56.0616 43.9701 50.1423 46.8707 51.6752L45.102 52.194C45.2553 52.194 48.1088 52.3826 48.1088 52.3826C48.1781 52.9735 48.3767 53.5419 48.6906 54.0473C49.0044 54.5528 49.4258 54.9828 49.9247 55.3069C51.6462 56.4389 51.6816 57.0638 51.6816 57.0638C51.6816 57.0638 50.7855 57.4294 50.7855 57.8892C50.7855 57.8892 52.1061 57.4883 53.3324 57.5237C54.1107 57.5532 54.8827 57.6759 55.6317 57.8892C55.6317 57.8892 55.5374 57.394 54.3465 57.0638C53.1555 56.7337 51.9764 55.4366 51.3986 54.7291C51.0447 54.2788 50.8141 53.7441 50.7293 53.1777C50.6445 52.6112 50.7086 52.0325 50.9152 51.4983C51.3279 50.4253 52.7664 49.8357 55.7379 48.3028C59.2399 46.4869 60.0417 45.1427 60.5369 44.0933C61.0322 43.0439 61.7632 40.9568 62.1759 39.9781C62.6948 38.7164 63.3315 38.0443 63.8621 37.6434C64.3927 37.2425 66.751 36.3581 66.751 36.3581C66.751 36.3581 64.9469 34.7899 64.3691 34.33Z" fill="#1D1C1F"/>
</g>
<defs>
<filter id="filter0_d_5226_1931" x="0" y="0" width="92" height="92" filterUnits="userSpaceOnUse" color-interpolation-filters="sRGB">
<feFlood flood-opacity="0" result="BackgroundImageFix"/>
<feColorMatrix in="SourceAlpha" type="matrix" values="0 0 0 0 0 0 0 0 0 0 0 0 0 0 0 0 0 0 127 0" result="hardAlpha"/>
<feOffset dy="1"/>
<feGaussianBlur stdDeviation="8"/>
<feColorMatrix type="matrix" values="0 0 0 0 0.0784314 0 0 0 0 0.0823529 0 0 0 0 0.101961 0 0 0 0.06 0"/>
<feBlend mode="normal" in2="BackgroundImageFix" result="effect1_dropShadow_5226_1931"/>
<feBlend mode="normal" in="SourceGraphic" in2="effect1_dropShadow_5226_1931" result="shape"/>
</filter>
</defs>
</svg>
