<svg width="92" height="92" viewBox="0 0 92 92" fill="none" xmlns="http://www.w3.org/2000/svg">
<g filter="url(#filter0_d_5226_1965)">
<rect x="16" y="15" width="60" height="60" rx="30" fill="white"/>
<g clip-path="url(#clip0_5226_1965)">
<path d="M59.568 52.0349L54.9937 56.814C54.8943 56.9179 54.7739 57.0006 54.6403 57.0572C54.5066 57.1138 54.3623 57.1429 54.2166 57.1429H32.5323C32.4288 57.1429 32.3276 57.1134 32.2411 57.0581C32.1546 57.0029 32.0865 56.9242 32.0453 56.8317C32.004 56.7393 31.9914 56.6371 32.0089 56.5378C32.0265 56.4384 32.0734 56.3463 32.144 56.2726L36.7218 51.4934C36.8209 51.3899 36.9409 51.3073 37.0741 51.2507C37.2074 51.1942 37.3511 51.1649 37.4965 51.1646H59.1796C59.2831 51.1646 59.3843 51.1941 59.4709 51.2493C59.5573 51.3046 59.6253 51.3833 59.6668 51.4758C59.7079 51.5682 59.7205 51.6704 59.703 51.7697C59.6854 51.869 59.6385 51.9612 59.568 52.0349ZM54.9937 42.4111C54.8943 42.3073 54.7739 42.2245 54.6403 42.1679C54.5066 42.1114 54.3623 42.0822 54.2166 42.0823H32.5323C32.4288 42.0823 32.3276 42.1118 32.2411 42.167C32.1546 42.2223 32.0865 42.301 32.0453 42.3934C32.004 42.4859 31.9914 42.5881 32.0089 42.6874C32.0265 42.7867 32.0734 42.8789 32.144 42.9526L36.7218 47.7318C36.8209 47.8353 36.9409 47.9179 37.0741 47.9744C37.2074 48.031 37.3511 48.0603 37.4965 48.0605H59.1796C59.2831 48.0605 59.3843 48.0311 59.4709 47.9758C59.5573 47.9205 59.6253 47.8418 59.6668 47.7494C59.7079 47.657 59.7205 47.5548 59.703 47.4555C59.6854 47.3561 59.6385 47.264 59.568 47.1902L54.9937 42.4111ZM32.5323 38.9782H54.2166C54.3623 38.9783 54.5066 38.9492 54.6403 38.8926C54.7739 38.836 54.8943 38.7532 54.9937 38.6494L59.568 33.8703C59.6385 33.7966 59.6854 33.7044 59.703 33.6051C59.7205 33.5057 59.7079 33.4036 59.6668 33.3111C59.6253 33.2187 59.5573 33.14 59.4709 33.0847C59.3843 33.0295 59.2831 33 59.1796 33H37.4965C37.3511 33.0002 37.2074 33.0295 37.0741 33.0861C36.9409 33.1427 36.8209 33.2253 36.7218 33.3288L32.1452 38.1079C32.0747 38.1816 32.0278 38.2737 32.0102 38.3729C31.9926 38.4721 32.0051 38.5742 32.0462 38.6666C32.0873 38.759 32.1552 38.8377 32.2415 38.893C32.3279 38.9484 32.4289 38.978 32.5323 38.9782Z" fill="#1D1C1F"/>
</g>
</g>
<defs>
<filter id="filter0_d_5226_1965" x="0" y="0" width="92" height="92" filterUnits="userSpaceOnUse" color-interpolation-filters="sRGB">
<feFlood flood-opacity="0" result="BackgroundImageFix"/>
<feColorMatrix in="SourceAlpha" type="matrix" values="0 0 0 0 0 0 0 0 0 0 0 0 0 0 0 0 0 0 127 0" result="hardAlpha"/>
<feOffset dy="1"/>
<feGaussianBlur stdDeviation="8"/>
<feColorMatrix type="matrix" values="0 0 0 0 0.0784314 0 0 0 0 0.0823529 0 0 0 0 0.101961 0 0 0 0.06 0"/>
<feBlend mode="normal" in2="BackgroundImageFix" result="effect1_dropShadow_5226_1965"/>
<feBlend mode="normal" in="SourceGraphic" in2="effect1_dropShadow_5226_1965" result="shape"/>
</filter>
<clipPath id="clip0_5226_1965">
<rect width="27.7094" height="24.1429" fill="white" transform="translate(32 33)"/>
</clipPath>
</defs>
</svg>
