<svg width="18" height="9" viewBox="0 0 18 9" fill="none" xmlns="http://www.w3.org/2000/svg">
<g id="svg5" clip-path="url(#clip0_5226_1872)">
<g id="layer1">
<path id="path3175" fill-rule="evenodd" clip-rule="evenodd" d="M6.87524 2.22156C7.40637 2.43013 7.9283 2.65454 8.44665 2.8948C6.79805 3.56191 5.20977 4.35478 3.6905 5.26061C3.17726 4.99172 2.65583 4.73562 2.1293 4.49842C3.64398 3.6161 5.22919 2.85288 6.87524 2.22156Z" fill="#0067B1"/>
<path id="path3179" fill-rule="evenodd" clip-rule="evenodd" d="M4.91258 1.52905C3.20468 2.07041 1.55914 2.77739 0 3.63824C0.49637 3.81716 0.989671 4.00886 1.47582 4.21334C2.98742 3.32437 4.58337 2.57649 6.24476 1.98248C5.80564 1.81992 5.36141 1.66861 4.91258 1.52905Z" fill="#0067B1"/>
<path id="path3183" fill-rule="evenodd" clip-rule="evenodd" d="M10.4442 2.15373C9.0998 1.50502 7.70577 0.957023 6.27238 0.521484C5.76834 0.666153 5.26686 0.824623 4.771 0.996896C6.24937 1.43397 7.68634 1.98759 9.06759 2.6501C9.52153 2.47578 9.98263 2.30913 10.4442 2.15373Z" fill="#EE2A24"/>
<path id="path3187" fill-rule="evenodd" clip-rule="evenodd" d="M12.6362 1.50036C11.2595 0.900215 9.84098 0.399244 8.38663 0C7.92502 0.096616 7.46392 0.202433 7.00998 0.321031C8.45104 0.741233 9.85325 1.27441 11.2049 1.90931C11.6787 1.76311 12.1552 1.62713 12.6362 1.50036Z" fill="#EE2A24"/>
<path id="path3191" fill-rule="evenodd" clip-rule="evenodd" d="M16.1547 2.68359C12.7062 3.84503 9.47649 5.50181 6.55399 7.57369C7.28448 8.02201 7.9976 8.49793 8.69078 8.99992C11.4466 6.81559 14.5041 4.9942 17.7962 3.61141C17.2574 3.28578 16.7109 2.97651 16.1547 2.68359Z" fill="#EE2A24"/>
<path id="path3195" fill-rule="evenodd" clip-rule="evenodd" d="M13.7835 1.55518C10.2 2.50344 6.8282 4.03447 3.79068 6.04807C4.47364 6.38444 5.14689 6.74585 5.80581 7.12618C8.78302 5.0676 12.0874 3.46193 15.611 2.40325C15.0104 2.10164 14.4021 1.81946 13.7835 1.55518Z" fill="#EE2A24"/>
</g>
</g>
<defs>
<clipPath id="clip0_5226_1872">
<rect width="17.7962" height="9" fill="white"/>
</clipPath>
</defs>
</svg>
