<svg width="92" height="92" viewBox="0 0 92 92" fill="none" xmlns="http://www.w3.org/2000/svg">
<g id="Cryptocurrency icon/Tether" filter="url(#filter0_d_5226_1968)">
<rect x="16" y="15" width="60" height="60" rx="30" fill="white"/>
<g id="Group">
<path id="Vector" d="M45.6276 28.1629C49.6496 28.1629 53.5108 28.1629 57.5328 28.1629C57.8546 28.1629 58.0155 28.3259 58.0155 28.4888C60.2678 33.5401 62.5202 38.4285 64.9334 43.3169C65.0943 43.4798 64.9334 43.6428 64.7725 43.8057C62.0375 46.5758 59.3025 49.3459 56.4067 52.1159C52.8673 55.5378 49.167 59.1226 45.6276 62.5445C45.3058 62.7074 45.3058 62.7074 45.1449 62.5445C41.6056 59.1226 38.0662 55.7007 34.5268 52.1159C31.7918 49.3459 28.8959 46.5758 26.1609 43.8057C26 43.6428 26 43.4798 26 43.3169C27.1262 40.7098 28.4133 38.2656 29.5394 35.6584C30.6656 33.2143 31.7918 30.933 32.9179 28.4888C33.0788 28.1629 33.2397 28 33.7223 28C37.7444 28.1629 41.6055 28 45.6276 28.1629ZM45.7885 32.5625C42.8926 32.5625 39.8359 32.5625 36.94 32.5625C36.7791 32.5625 36.7791 32.5625 36.6182 32.5625C36.4573 32.5625 36.4573 32.5625 36.4573 32.7254C36.4573 34.1919 36.4573 35.6584 36.2965 37.2879C36.2965 37.4508 36.2965 37.4508 36.4573 37.4508C36.94 37.4508 37.4226 37.4508 37.9053 37.4508C39.5141 37.4508 41.1229 37.4508 42.7317 37.4508C42.8926 37.4508 42.8926 37.4508 43.0535 37.4508C43.2144 37.4508 43.2144 37.6138 43.2144 37.7767C43.2144 38.4285 43.2144 39.2432 43.2144 39.895C43.2144 40.058 43.2144 40.058 43.0535 40.2209C41.9273 40.3839 40.8011 40.3839 39.675 40.5468C38.227 40.7098 36.7791 41.0356 35.492 41.5245C34.8485 41.6874 34.3659 42.0133 33.8832 42.3392C33.4006 42.828 33.4006 43.4798 33.8832 43.8057C34.205 44.1316 34.5268 44.2946 34.8485 44.4575C35.9747 44.9463 37.1009 45.1093 38.227 45.4352C39.8359 45.7611 41.4447 45.924 43.0535 46.087C43.3752 46.087 43.3752 46.087 43.3752 46.4128C43.3752 49.3459 43.3752 52.4418 43.3752 55.3749C43.3752 55.7007 43.3752 55.7007 43.697 55.7007C45.1449 55.7007 46.7538 55.7007 48.2017 55.7007C48.6843 55.7007 48.6843 55.7007 48.6843 55.2119C48.6843 52.7677 48.6843 50.4865 48.6843 48.0423C48.6843 47.3905 48.6843 46.7387 48.6843 46.087C48.6843 45.7611 48.8452 45.7611 49.0061 45.7611C50.6149 45.7611 52.0629 45.5981 53.6717 45.2722C54.9587 45.1093 56.0849 44.7834 57.2111 44.2946C57.5328 44.1316 57.8546 43.8057 58.1764 43.6428C58.4981 43.3169 58.4981 42.991 58.1764 42.6651C57.8546 42.5022 57.6937 42.1763 57.372 42.0133C55.4414 40.8727 53.189 40.3839 50.9367 40.2209C50.2932 40.2209 49.6496 40.2209 49.0061 40.058C48.8452 40.058 48.8452 40.058 48.8452 39.7321C48.8452 39.0803 48.8452 38.2656 48.8452 37.6138C48.8452 37.4508 48.8452 37.2879 49.167 37.2879C49.6496 37.2879 50.1323 37.2879 50.6149 37.2879C52.2237 37.2879 53.6717 37.2879 55.2805 37.2879C55.6023 37.2879 55.6023 37.125 55.6023 36.962C55.6023 36.7991 55.6023 36.7991 55.6023 36.6361C55.6023 35.3325 55.6023 34.029 55.6023 32.5625C55.6023 32.2366 55.6023 32.2366 55.2805 32.2366C51.7411 32.5625 48.6843 32.5625 45.7885 32.5625Z" fill="#1D1C1F"/>
<path id="Vector_2" d="M44.9834 44.9461C43.8573 44.9461 42.892 44.9461 41.7658 44.7832C39.9961 44.6202 38.0655 44.4573 36.2958 43.8055C35.9741 43.6425 35.6523 43.4796 35.1696 43.3166C34.687 42.9907 34.687 42.6649 35.1696 42.5019C35.8132 42.176 36.4567 42.0131 37.1002 41.8501C38.3873 41.5242 39.6743 41.3613 41.1223 41.1983C41.6049 41.1983 42.2484 41.0354 42.7311 41.0354C42.892 41.0354 43.0529 41.0354 43.0529 41.3613C43.0529 42.339 43.0529 43.1537 43.0529 44.1314C43.0529 44.4573 43.2137 44.4573 43.3746 44.4573C44.6617 44.4573 45.9487 44.4573 47.0749 44.4573C47.3967 44.4573 47.7184 44.4573 48.0402 44.4573C48.3619 44.4573 48.362 44.4573 48.362 44.1314C48.362 43.3166 48.362 42.5019 48.362 41.6872C48.362 41.1983 48.3619 41.1983 48.8446 41.1983C50.9361 41.3613 53.0275 41.5242 55.119 42.176C55.4407 42.339 55.9234 42.5019 56.2452 42.6649C56.5669 42.8278 56.5669 43.1537 56.2452 43.3166C55.6016 43.8055 54.9581 43.9684 54.1537 44.1314C52.5449 44.4573 50.9361 44.7832 49.3272 44.7832C48.0402 44.7832 46.4314 44.9461 44.9834 44.9461Z" fill="#1D1C1F"/>
</g>
</g>
<defs>
<filter id="filter0_d_5226_1968" x="0" y="0" width="92" height="92" filterUnits="userSpaceOnUse" color-interpolation-filters="sRGB">
<feFlood flood-opacity="0" result="BackgroundImageFix"/>
<feColorMatrix in="SourceAlpha" type="matrix" values="0 0 0 0 0 0 0 0 0 0 0 0 0 0 0 0 0 0 127 0" result="hardAlpha"/>
<feOffset dy="1"/>
<feGaussianBlur stdDeviation="8"/>
<feColorMatrix type="matrix" values="0 0 0 0 0.0784314 0 0 0 0 0.0823529 0 0 0 0 0.101961 0 0 0 0.06 0"/>
<feBlend mode="normal" in2="BackgroundImageFix" result="effect1_dropShadow_5226_1968"/>
<feBlend mode="normal" in="SourceGraphic" in2="effect1_dropShadow_5226_1968" result="shape"/>
</filter>
</defs>
</svg>
